<svg width="81" height="81" viewBox="0 0 81 81" fill="none" xmlns="http://www.w3.org/2000/svg">
<g id="Group 1">
<circle id="Ellipse 2" cx="40.625" cy="40.75" r="40.125" fill="#1A2F32"/>
<path id="Vector" d="M55.8396 39.1591C56.091 38.861 56.1376 38.4554 55.9598 38.1145C55.7818 37.7736 55.4107 37.5573 55.0037 37.5573H42.8612L52.06 16.9943C52.5342 15.9588 50.9955 15.1107 50.2488 15.995L26.6996 43.4124C26.4444 43.7096 26.3946 44.1168 26.5716 44.4598C26.7486 44.8028 27.121 45.0209 27.5296 45.0209H39.7491L32.4246 63.7816C31.9845 64.8229 33.5316 65.6342 34.2579 64.7425L55.8396 39.1591ZM42.1374 43.4629C41.9385 43.1983 41.6135 43.0408 41.2667 43.0408H29.7413L47.196 22.7191L40.2855 38.1666C40.1488 38.4723 40.1851 38.8212 40.3823 39.0966C40.5794 39.372 40.9113 39.5375 41.2668 39.5375H52.8168L36.6873 58.6578L42.2658 44.3692C42.3842 44.0657 42.3364 43.7274 42.1374 43.4629Z" fill="#E1E2DC"/>
</g>
</svg>
