<svg width="95" height="104" viewBox="0 0 95 104" fill="none" xmlns="http://www.w3.org/2000/svg">
<path id="Vector" d="M93.983 96.1604L92.4803 84.4225C92.4778 84.4029 92.4749 84.3835 92.4715 84.364C92.0587 81.9659 90.8738 79.7456 89.0776 78.0046C87.2814 76.2636 84.9609 75.0861 82.4311 74.632L67.1065 71.9125H67.1055L62.9551 71.1759C66.9773 70.4383 70.937 69.4245 74.8027 68.1426C76.5286 67.5682 77.9902 66.4471 78.9384 64.9702C79.8866 63.4933 80.2628 61.752 80.003 60.0427L77.6117 44.577H78.9458C79.8009 44.5761 80.6208 44.2552 81.2255 43.6846C81.8302 43.1141 82.1703 42.3406 82.1712 41.5338V35.3556C82.1703 34.5488 81.8302 33.7753 81.2255 33.2048C80.6208 32.6343 79.8009 32.3133 78.9458 32.3124H76.2931C76.0858 31.846 75.8235 31.403 75.5112 30.9918L74.1774 22.3641C73.2318 16.255 69.9871 10.6711 65.0364 6.63345C60.0857 2.59582 53.76 0.374257 47.2159 0.375H46.007C39.3716 0.383263 32.9667 2.67214 27.9908 6.81336C23.0148 10.9546 19.8086 16.6644 18.9722 22.8745L17.7172 32.3124H15.0933C14.2381 32.3133 13.4182 32.6342 12.8134 33.2047C12.2087 33.7752 11.8686 34.5487 11.8677 35.3556V41.5338C11.8686 42.3407 12.2087 43.1142 12.8134 43.6847C13.4182 44.2552 14.2381 44.5761 15.0933 44.577H16.0866L14.0147 60.1596C13.7984 61.8417 14.1937 63.5433 15.136 64.9858C16.0783 66.4283 17.5118 67.5264 19.2017 68.1002C23.1872 69.4297 27.2735 70.4733 31.4258 71.222L27.8899 71.8779L27.8661 71.8824L12.7153 74.6933C10.3583 75.1339 8.18511 76.2044 6.45473 77.7774C4.72434 79.3503 3.50966 81.3593 2.95536 83.5651C2.9485 83.5917 2.94258 83.6184 2.93758 83.6452L0.645538 95.6957C0.407817 96.6753 0.407211 97.693 0.643765 98.6729C0.880319 99.6528 1.34795 100.57 2.01189 101.356C2.67583 102.142 3.519 102.776 4.47872 103.212C5.43844 103.649 6.49003 103.875 7.55529 103.875H86.9764C87.9994 103.875 89.0103 103.666 89.9397 103.263C90.8691 102.859 91.695 102.271 92.3607 101.538C93.0263 100.805 93.516 99.9452 93.796 99.0169C94.076 98.0886 94.1398 97.1142 93.983 96.1604ZM76.8425 35.3493L78.9573 35.3554L78.9458 41.5448H76.8425V35.3493ZM74.705 46.7842L76.8224 60.4806C76.9759 61.4942 76.7522 62.5268 76.1894 63.4023C75.6266 64.2778 74.7595 64.9422 73.7358 65.2822C69.2818 66.7595 64.6992 67.8659 60.0406 68.589V62.743L61.203 62.057C62.8968 61.0615 64.3263 59.7132 65.3819 58.1155H65.6441C67.4996 58.1137 69.2786 57.4177 70.5908 56.18C71.903 54.9424 72.6413 53.2642 72.6437 51.5137V48.1237C73.4087 47.7947 74.1064 47.3413 74.705 46.7842ZM53.2587 63.1696C51.385 64.2655 49.2242 64.8462 47.0196 64.8462C44.815 64.8462 42.6542 64.2655 40.7805 63.1696L37.4489 61.2031C37.4435 61.1996 37.4375 61.1966 37.4319 61.1932L34.5393 59.4858C33.1192 58.6542 31.9482 57.4935 31.138 56.1142C30.3278 54.735 29.9053 53.183 29.9107 51.6061V31.0894C31.4901 30.8849 33.0017 30.3524 34.3367 29.5303C35.6717 28.7082 36.7968 27.6169 37.6308 26.3351C38.6523 27.2878 39.7597 28.1549 40.9404 28.9266L41.2524 29.127C48.5649 33.8029 56.4593 32.7131 64.1278 31.4731V51.6065C64.1294 52.7975 63.8889 53.9778 63.4194 55.0834H52.6442C52.3169 54.2094 51.7106 53.4524 50.9087 52.9167C50.1069 52.3809 49.1488 52.0926 48.1662 52.0914H45.437C44.1782 52.0928 42.9713 52.5653 42.0811 53.4051C41.191 54.2449 40.6903 55.3836 40.6888 56.5713V56.6279C40.6903 57.8155 41.191 58.9541 42.0812 59.7939C42.9713 60.6337 44.1782 61.1061 45.437 61.1075H48.1662C49.1487 61.1063 50.1068 60.818 50.9087 60.2823C51.7105 59.7466 52.3168 58.9897 52.6442 58.1157H61.3075C60.7634 58.6376 60.1563 59.0976 59.4987 59.4862L53.2587 63.1696ZM56.8265 64.6404V71.5434C56.8258 71.7158 56.7837 71.8858 56.7032 72.0406C56.6228 72.1954 56.5062 72.3309 56.3622 72.4371L47.2858 79.1019L38.5997 72.4561C38.3547 72.2697 38.1976 71.9996 38.1626 71.7045C38.1617 71.6934 38.1617 71.6823 38.1607 71.6713C38.1581 71.6404 38.1551 71.6093 38.1551 71.5777V65.1969L39.0765 65.7407C41.462 67.136 44.213 67.8753 47.0198 67.8752C49.8266 67.8751 52.5776 67.1357 54.963 65.7403L56.8265 64.6404ZM49.7004 56.5711V56.6277C49.6999 57.0114 49.5381 57.3793 49.2505 57.6506C48.9629 57.922 48.5729 58.0746 48.1662 58.075H45.437C45.0303 58.0746 44.6403 57.922 44.3527 57.6506C44.0651 57.3793 43.9033 57.0114 43.9029 56.6277V56.5711C43.9033 56.1873 44.0651 55.8194 44.3527 55.548C44.6403 55.2766 45.0303 55.124 45.437 55.1235H48.1662C48.573 55.124 48.9629 55.2766 49.2505 55.548C49.5381 55.8194 49.6999 56.1873 49.7004 56.5711ZM66.8762 54.8851C67.1856 53.8167 67.3422 52.7139 67.3418 51.6063V48.7297H69.4296V51.5137C69.4282 52.2564 69.1815 52.9801 68.7239 53.5844C68.2663 54.1887 67.6204 54.6434 66.8762 54.8853V54.8851ZM73.6285 34.904V41.9854C73.6273 42.9696 73.2125 43.9131 72.4749 44.609C71.7373 45.3049 70.7372 45.6964 69.6941 45.6975H67.3418V31.1919H69.6941C70.7372 31.193 71.7373 31.5845 72.4749 32.2804C73.2125 32.9763 73.6273 33.9198 73.6285 34.904ZM22.161 23.2519C22.8989 17.7744 25.727 12.7382 30.1161 9.08563C34.5052 5.43304 40.1546 3.41433 46.0072 3.40723H47.2161C52.9881 3.40644 58.5676 5.36579 62.9342 8.92697C67.3009 12.4882 70.1629 17.4132 70.997 22.8016L71.8755 28.4825C71.1707 28.2685 70.4347 28.1596 69.6943 28.1597H65.816C65.8081 28.1595 65.8003 28.1601 65.7924 28.1597H65.735L65.7286 28.1601C65.6785 28.1603 65.6284 28.1627 65.5786 28.1674L65.5572 28.1696C65.5263 28.1728 65.4957 28.1747 65.465 28.1797L64.365 28.3578C56.744 29.5964 49.5457 30.7662 43.0559 26.6169L42.7634 26.4289C41.1462 25.3719 39.6906 24.1101 38.4377 22.679C38.2544 22.4695 38.0147 22.3103 37.7438 22.2181C37.4729 22.1258 37.1807 22.104 36.8978 22.1548C36.6148 22.2057 36.3516 22.3273 36.1356 22.507C35.9195 22.6867 35.7587 22.9179 35.6698 23.1763C35.1693 24.6385 34.1858 25.9111 32.8634 26.8078C31.5409 27.7046 29.9489 28.1784 28.3203 28.1599L28.3133 28.1601L28.3039 28.1597H24.3448C23.3398 28.16 22.3463 28.3616 21.4301 28.7512L22.161 23.2519ZM20.4104 34.9038C20.4116 33.9197 20.8265 32.9764 21.5641 32.2805C22.3016 31.5847 23.3016 31.1933 24.3446 31.1921H26.6966V45.6975H24.3446C23.3014 45.6964 22.3014 45.3049 21.5638 44.609C20.8262 43.9131 20.4113 42.9696 20.4102 41.9854L20.4104 34.9038ZM15.0815 41.5338L15.0931 35.3447H17.1961V41.5401L15.0815 41.5338ZM20.2737 65.2418C19.2728 64.9015 18.4241 64.2507 17.8664 63.396C17.3086 62.5413 17.0749 61.5333 17.2034 60.537L19.0667 46.5237C19.7347 47.2184 20.5493 47.7735 21.4583 48.1535C22.3672 48.5334 23.3504 48.7297 24.3446 48.7297H26.6966V51.6063C26.6896 53.6976 27.2499 55.7559 28.3244 57.5851C29.3989 59.4144 30.9517 60.9537 32.835 62.0568L34.9413 63.3V68.7173C29.9475 67.9946 25.0368 66.831 20.2737 65.2418ZM35.4729 73.5614C35.7497 74.0423 36.1243 74.467 36.5751 74.8113L45.4608 81.6096C45.9671 82.0004 46.5994 82.2166 47.2535 82.2226C47.9076 82.2286 48.5442 82.024 49.0584 81.6425L58.3356 74.8305C58.7803 74.5029 59.154 74.0977 59.4365 73.637L65.0022 74.6245C64.7953 75.2182 64.4072 75.7411 63.8867 76.1277L47.353 88.2677C47.2854 88.3176 47.2017 88.3443 47.1158 88.3435C47.03 88.3426 46.9469 88.3143 46.8804 88.2631L31.0416 76.1439C30.5166 75.7424 30.1344 75.199 29.9462 74.5867L35.4729 73.5614ZM89.9269 99.5581C89.5631 99.9612 89.1109 100.285 88.6014 100.507C88.092 100.728 87.5375 100.843 86.9764 100.843H7.55529C6.97094 100.843 6.39415 100.718 5.8681 100.478C5.34204 100.238 4.88036 99.8889 4.51761 99.4567C4.15487 99.0245 3.90047 98.5205 3.77345 97.9824C3.64643 97.4443 3.65009 96.886 3.78415 96.3494C3.79073 96.3229 3.79651 96.296 3.80151 96.269L6.09291 84.2225C6.51089 82.5917 7.41505 81.1078 8.69852 79.9464C9.98199 78.7849 11.5911 77.9944 13.3356 77.6683L26.7823 75.1738C27.1205 76.4839 27.9062 77.6527 29.0182 78.4999L44.8568 90.6187C45.4864 91.1037 46.2723 91.3719 47.0851 91.3794C47.8979 91.3868 48.6891 91.1329 49.3286 90.6595L65.8625 78.5195C67.0055 77.6826 67.8211 76.5109 68.1809 75.1887L81.836 77.6119C83.7111 77.9485 85.4316 78.8198 86.7652 80.1082C88.0987 81.3965 88.9811 83.0399 89.2933 84.8164L90.7953 96.5512C90.7979 96.5704 90.8009 96.5896 90.8041 96.609C90.8931 97.1312 90.8607 97.6654 90.7092 98.1746C90.5577 98.6838 90.2907 99.1559 89.9266 99.5581H89.9269Z" fill="#1E1F27"/>
</svg>
